<svg width="18" height="20" viewBox="0 0 18 20" fill="none" xmlns="http://www.w3.org/2000/svg">
<path d="M12.2027 14.9692C12.3944 13.4033 11.3861 12.405 8.72355 11.555C7.43355 11.115 6.82605 10.5383 6.84022 9.74583C6.89439 8.86583 7.71355 8.225 8.80022 8.20417C9.656 8.2134 10.4907 8.47106 11.2027 8.94583C11.2994 9.00583 11.3669 8.99583 11.4219 8.9125C11.4969 8.7925 11.6844 8.50167 11.7469 8.39583C11.7894 8.32917 11.7977 8.24083 11.6902 8.1625C11.5361 8.04833 11.1036 7.81667 10.8711 7.71917C10.2089 7.43892 9.49757 7.29331 8.77855 7.29083C7.18689 7.2975 5.93439 8.30333 5.82855 9.64583C5.76078 10.6158 6.24133 11.4011 7.27022 12.0017C7.48939 12.1283 8.67022 12.5983 9.14022 12.745C10.6186 13.205 11.3861 14.03 11.2052 14.9925C11.0411 15.865 10.1227 16.4292 8.85689 16.4458C7.85439 16.4075 6.95105 15.9983 6.25105 15.4542L6.13355 15.3625C6.04689 15.2958 5.95189 15.3 5.89439 15.3875C5.85272 15.4517 5.58105 15.8433 5.51272 15.9458C5.44855 16.0358 5.48355 16.0858 5.55022 16.1408C5.84189 16.385 6.23105 16.6517 6.49522 16.7867C7.22694 17.1595 8.0319 17.3664 8.85272 17.3925C9.44367 17.4206 10.0337 17.3199 10.5819 17.0975C11.4944 16.71 12.0844 15.9358 12.2027 14.9692ZM8.91855 1.1675C7.19522 1.1675 5.79022 2.7925 5.72439 4.82583H12.1119C12.0444 2.79167 10.6402 1.16667 8.91855 1.16667M15.4611 19.9983L15.3944 19.9992L2.24105 19.9975C1.34605 19.9642 0.688554 19.2392 0.598554 18.3383L0.59022 18.1758L0.0010537 5.2375C-0.00280806 5.18552 0.00397016 5.1333 0.0209742 5.08404C0.0379782 5.03477 0.0648507 4.98948 0.0999493 4.95095C0.135048 4.91242 0.177635 4.88146 0.225108 4.85994C0.272581 4.83843 0.323943 4.82682 0.376054 4.82583H4.52189C4.62272 2.14 6.55189 0 8.91855 0C11.2852 0 13.2127 2.14083 13.3144 4.825H17.4544C17.5062 4.82516 17.5575 4.83584 17.6051 4.85639C17.6527 4.87694 17.6957 4.90694 17.7314 4.94457C17.767 4.9822 17.7947 5.02667 17.8127 5.0753C17.8307 5.12393 17.8386 5.17571 17.8361 5.2275L17.1919 18.2175L17.1861 18.3267C17.1077 19.2383 16.3702 19.9742 15.4611 19.9983Z" fill="#8E8E8E"/>
</svg>
