<svg width="19" height="20" viewBox="0 0 19 20" fill="none" xmlns="http://www.w3.org/2000/svg">
<path fill-rule="evenodd" clip-rule="evenodd" d="M9.25 1.5C8.062 1.5 7.0275 2.16337 6.499 3.14087C7.592 3.26537 8.36125 3.5 9.25 3.9165C10.1387 3.5 10.908 3.26537 12.001 3.14087C11.4726 2.16375 10.4382 1.5 9.25 1.5ZM9.25 0C7.25337 0 5.554 1.26462 4.90575 3.035C3.8665 3 2.55775 3 0.81625 3H0.75C0.551088 3 0.360322 3.07902 0.21967 3.21967C0.0790175 3.36032 0 3.55109 0 3.75V19.25C0 19.4489 0.0790175 19.6397 0.21967 19.7803C0.360322 19.921 0.551088 20 0.75 20H12.25C15.7017 20 18.5 17.2017 18.5 13.75V3.75C18.5 3.55109 18.421 3.36032 18.2803 3.21967C18.1397 3.07902 17.9489 3 17.75 3H17.6836C15.9422 3 14.6335 3 13.5942 3.035C12.9457 1.26412 11.2462 0 9.25 0ZM1.5 4.50012V18.5H12.25C14.8734 18.5 17 16.3734 17 13.75V4.50012C14.6872 4.50125 13.2972 4.51237 12.266 4.62087C11.1795 4.73525 10.5161 4.9555 9.58537 5.42087C9.48124 5.47293 9.36642 5.50004 9.25 5.50004C9.13358 5.50004 9.01876 5.47293 8.91462 5.42087C7.98387 4.9555 7.3205 4.73525 6.234 4.62087C5.20275 4.51237 3.81275 4.50125 1.5 4.50012ZM3.5 10C3.5 8.75737 4.50737 7.75 5.75 7.75C6.99262 7.75 8 8.75737 8 10C8 11.2426 6.99262 12.25 5.75 12.25C4.50737 12.25 3.5 11.2426 3.5 10ZM5.75 6.25C3.67887 6.25 2 7.92887 2 10C2 12.0711 3.67887 13.75 5.75 13.75C5.89075 13.75 6.02975 13.7422 6.1665 13.7271L8.71962 16.2804C8.78927 16.35 8.87195 16.4053 8.96296 16.443C9.05396 16.4807 9.1515 16.5001 9.25 16.5001C9.3485 16.5001 9.44604 16.4807 9.53704 16.443C9.62804 16.4053 9.71073 16.35 9.78037 16.2804L12.3335 13.7271C12.4702 13.7422 12.6092 13.75 12.75 13.75C14.8211 13.75 16.5 12.0711 16.5 10C16.5 7.92887 14.8211 6.25 12.75 6.25C11.1545 6.25 9.79175 7.24637 9.25 8.65087C8.70825 7.24637 7.3455 6.25 5.75 6.25ZM10.7602 13.1791C10.0726 12.748 9.54287 12.106 9.25 11.3491C8.95712 12.106 8.42736 12.748 7.73975 13.1791L9.25 14.6894L10.7602 13.1791ZM12.75 7.75C11.5074 7.75 10.5 8.75737 10.5 10C10.5 11.2426 11.5074 12.25 12.75 12.25C13.9926 12.25 15 11.2426 15 10C15 8.75737 13.9926 7.75 12.75 7.75ZM6.75 10C6.75 10.2652 6.64464 10.5196 6.45711 10.7071C6.26957 10.8946 6.01522 11 5.75 11C5.48478 11 5.23043 10.8946 5.04289 10.7071C4.85536 10.5196 4.75 10.2652 4.75 10C4.75 9.73478 4.85536 9.48043 5.04289 9.29289C5.23043 9.10536 5.48478 9 5.75 9C6.01522 9 6.26957 9.10536 6.45711 9.29289C6.64464 9.48043 6.75 9.73478 6.75 10ZM12.75 11C13.0152 11 13.2696 10.8946 13.4571 10.7071C13.6446 10.5196 13.75 10.2652 13.75 10C13.75 9.73478 13.6446 9.48043 13.4571 9.29289C13.2696 9.10536 13.0152 9 12.75 9C12.4848 9 12.2304 9.10536 12.0429 9.29289C11.8554 9.48043 11.75 9.73478 11.75 10C11.75 10.2652 11.8554 10.5196 12.0429 10.7071C12.2304 10.8946 12.4848 11 12.75 11Z" fill="#8E8E8E"/>
</svg>
